<svg xmlns="http://www.w3.org/2000/svg" viewBox="0 0 247.1 247.1"><path stroke="#fff" stroke-width="6.038" stroke-miterlimit="10" d="M43.1 123.8c0 6.4 5.1 11.7 11.2 11.7h117l-32.7 44.7c-1.8 2.4-2.5 5.3-2 8.2.5 2.9 2.1 5.5 4.5 7.3 1.9 1.4 4.2 2.1 6.6 2.1 3.6 0 7-1.7 9.1-4.6l45.7-62.8.1-.1c.3-.4.6-.9.8-1.4.5-1.1.9-2.2 1.1-3.3.1-.7.1-1.2.1-1.8 0-.5 0-1.1-.1-1.7-.2-1.2-.5-2.3-1-3.3 0 0 0-.1-.1-.1-.2-.4-.5-.9-.8-1.3-.1-.1-.1-.2-.2-.3l-45.7-62.8c-2.1-2.9-5.5-4.7-9.1-4.7-2.4 0-4.6.7-6.5 2.1-2.4 1.8-4 4.4-4.5 7.3-.5 2.9.3 5.8 2 8.3l32.7 44.7h-117c-6 0-11.2 5.4-11.2 11.8z"/></svg>