<svg xmlns="http://www.w3.org/2000/svg" viewBox="0 0 247.1 247.1"><path stroke="#fff" stroke-width="6.038" stroke-miterlimit="10" d="M193.4 112h-117l32.7-44.7c1.8-2.4 2.5-5.3 2-8.3-.5-2.9-2.1-5.5-4.5-7.3-1.9-1.4-4.2-2.1-6.5-2.1-3.6 0-7 1.7-9.1 4.7l-45.7 62.8c-.1.1-.1.2-.2.3-.3.4-.5.8-.8 1.3 0 0 0 .1-.1.1-.5 1-.8 2.1-1 3.3-.1.6-.1 1.2-.1 1.7s0 1.1.1 1.8c.2 1.1.5 2.3 1.1 3.3.3.5.5 1 .8 1.4l.1.1L91 193.2c2.1 2.9 5.5 4.6 9.1 4.6 2.4 0 4.7-.7 6.6-2.1 2.4-1.8 4-4.4 4.5-7.3.5-2.9-.3-5.8-2-8.2l-32.7-44.7h117c6.1 0 11.2-5.4 11.2-11.7 0-6.4-5.2-11.8-11.3-11.8z"/></svg>